<?xml version="1.0" encoding="utf-8"?>
<!-- Generator: Adobe Illustrator 24.0.0, SVG Export Plug-In . SVG Version: 6.00 Build 0)  -->
<svg version="1.1" xmlns="http://www.w3.org/2000/svg" xmlns:xlink="http://www.w3.org/1999/xlink" x="0px" y="0px"
	 viewBox="0 0 424.494 462.483" style="enable-background:new 0 0 424.494 462.483;" xml:space="preserve">
<g id="Weltladen-Name">
</g>
<g id="Logo">
	<g>
		<path d="M46.627,203.168c-2.377,4.817-3.814,9.579-6.907,13.554c-4.694,6.032-10.926,7.172-17.247,2.752
			c-7.582-5.301-10.35-13.025-11.38-21.82c-2.958-25.269-0.61-49.775,9.607-73.328c9.294-21.426,21.786-40.541,38.328-57.203
			c18-18.132,37.667-33.69,61.1-44.185c12.106-5.422,23.868-11.705,37.147-14.098c2.579-0.465,5.063-1.065,6.081,1.838
			c1.004,2.864-1.296,4.286-3.585,5.261c-4.412,1.879-8.789,3.873-13.305,5.468c-25.107,8.87-47.401,22.777-67.088,40.274
			c-28.757,25.557-48.661,56.71-54.656,95.578c-0.613,3.972-0.113,7.786,0.712,11.541c0.593,2.7,0.979,6.06,5.233,5.969
			c4.233-0.091,7.474-1.192,9.026-5.691c5.475-15.87,10.896-31.765,16.759-47.494c4.596-12.33,10.965-23.791,18.946-34.305
			c1.464-1.929,3.217-3.525,5.246-4.896c3.242-2.191,6.652-2.961,9.663-0.227c2.909,2.642,1.989,6.13,0.499,9.255
			c-2.936,6.157-5.995,12.256-9.021,18.37c-7.674,15.508-11.324,32.328-15.96,48.828c-1.334,4.747-0.85,9.581-0.628,14.368
			c0.192,4.151,3.074,7.444,6.611,8.013c4.894,0.788,9.178-2.176,12.469-5.841c4.002-4.457,5.098-10.331,6.128-15.853
			c4.33-23.227,11.702-45.534,22.518-66.349c9.784-18.829,21.633-36.618,37.115-51.538c5.456-5.258,10.311-11.14,16.477-15.678
			c2.761-2.032,5.786-3.287,9.038-3.984c4.599-0.986,7.043,1.961,5.651,6.428c-0.821,2.634-3.091,4.102-4.54,6.215
			c-18.212,26.562-35.426,53.767-44.723,84.891c-5.116,17.128-8.628,34.771-12.182,52.319c-3.693,18.23-14.634,30.992-29.067,41.507
			c-4.362,3.178-8.98,5.732-14.295,7.034c-10.303,2.524-20.134-1.33-25.853-10.376C49.269,207.752,48.106,205.668,46.627,203.168z"
			/>
		<path d="M343.562,221.1c-13.025-0.482-26.054-1.504-32.615-15.22c-5.807-12.139-10.122-24.769-12.661-38.182
			c-5.8-30.644-10.597-61.574-20.814-91.202c-5.501-15.953-12.665-31.097-24.389-43.658c-2.258-2.419-4.267-5.119-6.073-7.896
			c-1.4-2.152-1.302-4.575,0.347-6.734c1.709-2.239,3.916-1.69,6.057-0.939c7.442,2.611,12.251,8.786,17.927,13.685
			c16.515,14.254,26.778,33.028,34.803,52.721c10.587,25.978,19.257,52.686,24.451,80.397c1.51,8.058,5.068,13.628,14.684,15.397
			c15.056,2.771,21.964,12.083,20.977,24.761c-0.797,10.241-8.971,17.355-19.371,16.877C345.78,221.056,344.67,221.1,343.562,221.1z
			"/>
		<path d="M421.864,213.895c-0.193,1.955,0.472,4.924-0.727,7.805c-3.427,8.235-10.876,11.292-19.045,7.421
			c-9.136-4.33-13.682-12.518-15.643-21.724c-5.62-26.393-13.388-52.212-20.12-78.306c-1.889-7.323-3.78-14.645-6.648-21.686
			c-1.187-2.915-2.36-4.425-6.026-3.836c-9.328,1.498-18.119-4.16-20.964-13.07c-1.282-4.013,1.308-6.298,4.337-7.871
			c4.348-2.259,5.669-4.147,2.474-9.153c-7.767-12.171-17.18-22.591-28.702-31.18c-7.408-5.522-14.901-10.93-22.285-16.483
			c-8.662-6.515-17.891-11.727-28.749-13.661c-1.317-0.235-3.984,0.042-3.676-2.362c0.327-2.548,2.68-2.146,4.457-1.736
			c3.226,0.744,6.591,1.295,9.564,2.658c30.511,13.987,58.627,31.418,80.931,57.063c1.824,2.098,3.239,3.753,6.829,2.37
			c3.674-1.415,7.616-0.042,10.677,2.916c4.232,4.089,6.996,9.033,8.637,14.62c0.357,1.215,0.852,2.995,0.278,3.784
			c-4.598,6.328,1.141,10.226,3.079,15.174c5.843,14.921,11.211,30.028,16.864,45.024c2.704,7.174,3.484,14.701,4.559,22.194
			c1.091,7.608,3.737,13.901,11.555,17.501c6.653,3.064,7.125,10.255,8.299,16.579C422.119,209.546,421.864,211.26,421.864,213.895z
			"/>
		<path d="M371.861,330.125c-0.436,3.135-1.623,6.182-3.625,8.936c-10.215,14.051-22.785,25.609-36.925,35.631
			c-9.66,6.847-19.744,12.907-30.336,18.15c-2.143,1.061-4.357,2.004-6.607,2.813c-1.718,0.618-3.343,0.212-4.354-1.448
			c-1.059-1.738,0.363-2.755,1.363-3.759c1.44-1.446,3.175-2.444,5.066-3.291c18.591-8.327,34.756-20.13,49.144-34.464
			c1.844-1.837,3.575-3.729,4.593-6.182c0.67-1.614,1.088-3.159-0.316-4.613c-1.419-1.469-3.184-2.053-5.026-1.249
			c-1.665,0.727-3.43,1.624-4.647,2.92c-14.261,15.178-30.951,27.417-47.681,39.608c-1.921,1.399-3.967,2.693-6.114,3.694
			c-1.749,0.816-3.902,0.792-4.93-1.113c-1.153-2.135,0.778-3.157,2.246-4.275c19.88-15.138,38.786-31.374,55.553-49.963
			c3.705-4.108,6.806-8.757,10.435-12.94c3.593-4.141,6.137-4.111,9.652,0.136c1.336,1.614,2.809,1.396,4.403,1.624
			C368.705,321.051,371.92,324.878,371.861,330.125z"/>
		<path d="M227.335,166.9c-0.392,11.723-2.559,13.809-13.321,12.137c-15.086-2.344-26.763-9.572-33.622-23.849
			c-1.749-3.64-1.072-5.804,1.699-7.97c1.305-1.02,2.683-1.951,4.054-2.883c6.08-4.135,6.175-4.085,10.053,1.986
			c4.15,6.498,10.248,10.464,17.392,12.906c3.131,1.07,6.347,1.978,9.594,2.601C226.471,162.457,228.179,163.89,227.335,166.9z"/>
		<path d="M173.869,154.729c0.97-1.426,1.733-1.547,2.794,0.073c2.118,3.233,4.648,6.208,6.637,9.513
			c7.346,12.209,19.272,15.767,32.262,17.117c5.906,0.614,6.464,1.179,3.774,6.439c-5.058,9.888-7.559,11.432-18.458,7.529
			c-13.194-4.725-24.337-12.703-32.55-24.417c-2.182-3.112-0.151-5.601,0.341-8.362
			C169.347,159.295,171.259,156.783,173.869,154.729z"/>
		<path d="M217.827,197.369c1.895-4.41,3.737-8.739,5.617-13.051c0.566-1.298,1.57-1.935,3.049-1.858
			c14.383,0.749,26.532-4.736,37.528-13.456c0.372-0.295,0.983-0.291,1.936-0.549c0.45,3.81,0.866,7.408,1.303,11.003
			c0.216,1.78-0.381,3.071-1.75,4.338c-11.469,10.62-24.939,15.328-40.486,13.703C222.668,197.253,220.339,198.587,217.827,197.369z
			"/>
		<path d="M229.593,174.764c0.016-0.92,0.03-1.841,0.048-2.761c0.185-9.118,0.291-8.695,8.965-10.852
			c8.088-2.011,15.374-5.907,20.271-13.17c3.839,3.137,4.937,7.556,6.721,11.516c1.144,2.538-0.647,4.816-2.34,6.243
			c-9.728,8.194-20.369,14.48-33.643,14.576C228.474,178.469,228.894,176.617,229.593,174.764z"/>
		<path d="M167.214,162.488c-1.463,0.817-2.651,2.542-4.18-0.369c-4.411-8.4-7.946-17.08-8.251-26.636
			c-0.264-8.282,4.778-13.826,14.923-17.283c-2.275,11.293-0.714,22.003,3.902,32.356c0.327,0.733-0.51,1.984-0.805,2.995
			C172.043,157.22,170.27,160.255,167.214,162.488z"/>
		<path d="M259.814,112.886c-5.519,1.186-10.442,1.946-14.688,4.784c-1.702,1.138-2.949,0.211-4.159-1.285
			c-3.261-4.034-7.61-6.588-12.754-6.704c-4.024-0.091-5.472-1.97-6.087-5.43c-0.288-1.624-0.862-3.196-1.3-4.794
			c-1.658-6.054-0.82-7.476,5.483-6.011C239.106,96.421,251.22,101.049,259.814,112.886z"/>
		<path d="M176.363,147.975c-5.485-9.592-5.669-19.623-3.073-29.949c0.339-1.348,1.317-2.042,2.83-2.192
			c2.196-0.219,4.354-0.816,6.549-1.065c7.843-0.891,7.723-0.871,7.145,6.633c-0.366,4.751-0.882,9.645,1.417,14.1
			c0.986,1.91,0.193,2.992-1.231,3.512C184.845,140.898,181.417,145.336,176.363,147.975z"/>
		<path d="M152.208,130.313c-0.334,13.247,3.339,24.067,9.657,34.053c1.539,2.432,1.499,4.582,0.196,7.205
			c-1.857,3.736-3.291,7.703-4.101,12.989c-4.419-7.054-9.427-12.579-10.718-20.331c-0.962-5.773-3.957-11.21-3.66-17.17
			C143.886,140.94,147.341,136.088,152.208,130.313z"/>
		<path d="M227.851,152.226c0,2.127-0.078,3.606,0.018,5.074c0.155,2.394-0.86,3.451-3.245,3.038
			c-11.334-1.961-20.707-7.065-27.198-16.871c-1.929-2.914-1.721-5.069,1.682-6.571c1.678-0.741,3.309-1.6,4.913-2.493
			c3.201-1.782,5.252-2.032,7.423,2.101c2.569,4.891,6.765,8.586,13.091,8.743C230.791,145.402,225.719,150.72,227.851,152.226z"/>
		<path d="M229.839,151.106c-0.835-3.888,0.651-6.486,5.669-7.354c3.055-0.528,5.862-2.97,7.153-5.722
			c1.836-3.911,3.8-2.285,5.93-0.937c9.93,6.282,10.087,8.287,1.621,16.307c-3.484,3.301-7.555,5.241-12.292,5.744
			C230.082,159.977,229.83,159.719,229.839,151.106z"/>
		<path d="M189.272,220.272c-3.515-4.5-9.274-5.382-13.685-8.463c-3.011-2.103-6.337-3.749-9.445-5.72
			c-5.544-3.516-8.362-8.238-5.919-15.647c12.674,10.105,25.748,19.463,41.884,23.493c-2.622,6.131-7.053,7.765-13.001,6.185
			L189.272,220.272z"/>
		<path d="M141.475,148.087c0.986,9.505,3.42,17.919,7.212,25.95c1.811,3.837,3.839,7.475,6.672,10.699
			c3.675,4.182,3.757,8.823,0.364,13.431c-0.915,1.242,0.294,1.506,0.592,2.144c1.12,2.399,2.755,4.615,2.735,7.632
			C147.041,202.957,136.253,166.432,141.475,148.087z"/>
		<path d="M210.653,222.816c-3.25-0.469-6.5-0.938-9.861-1.422c1.907-5.192,4.942-7.128,10.541-6.829
			c15.672,0.836,30.627-3.143,45.41-8.505c-2.428,5.658-3.937,7.236-10.741,10.028c-4.238,1.739-8.669,3.009-13.014,4.489
			C225.816,224.05,218.444,225.517,210.653,222.816z"/>
		<path d="M212.447,92.611c-3.533,2.174-7.117,4.27-10.577,6.554c-1.676,1.107-3.976,2.279-4.528,3.916
			c-3.317,9.847-11.809,8.421-19.285,9.414c-3.26,0.433-3.447-0.975-2.412-3.404c1.393-3.269,3.389-6.333,5.971-8.553
			C190.391,92.989,200.737,90.285,212.447,92.611z"/>
		<path d="M259.44,143.036c-2.091-1.556-3.403-3.084-5.049-3.664c-8.715-3.071-8.088-10.744-9.042-17.686
			c-0.117-0.849,0.204-1.417,0.831-1.859c0.448-0.316,0.958-0.544,1.439-0.812c11.002-6.133,15.359-3.566,15.153,9.002
			C262.691,133.023,261.166,137.728,259.44,143.036z"/>
		<path d="M208.575,115.939c-2.844,0.118-6.533-3.486-11.295-3.601c-1.812-0.044-0.991-2.087-0.426-3.085
			c3.545-6.263,8.494-10.931,15.409-13.377c2.316-0.819,3.89-0.325,4.878,1.91c0.886,2.004,1.915,3.968,2.567,6.048
			C221.42,109.296,216.271,115.951,208.575,115.939z"/>
		<path d="M264.448,119.482c12.96,19.139,12.964,22.936,3.267,38.554c-2.489-3.952-3.833-8.381-6.712-11.906
			c-0.359-0.44-0.429-1.531-0.136-2.027C265.42,136.389,265.127,128.003,264.448,119.482z"/>
		<path d="M209.383,123.451c1.763,5.516-1.636,7.27-6.041,8.347c-1.243,0.304-2.433,0.862-3.611,1.386
			c-6.977,3.104-7.488,2.773-7.845-5.179c-0.025-0.554-0.065-1.109-0.064-1.663c0.036-11.227,2.623-13.028,13.336-9.509
			C208.492,117.929,211.737,118.814,209.383,123.451z"/>
		<path d="M198.371,423.499c1.032-2.967,3.905-3.691,5.363-5.682c-0.211-0.294-0.331-0.646-0.565-0.758
			c-1.819-0.871-5.386,1.249-5.482-1.783c-0.087-2.756,3.51-2.031,5.471-2.231c2.834-0.289,5.746,0.188,8.447,0.329
			c0.324,1.987-0.64,2.731-1.478,3.377c-2.404,1.853-2.95,3.118-0.161,5.584c3.683,3.255,3.723,8.585,0.846,12.044
			c-2.602,3.128-5.851,3.56-9.503,1.936c-2.434-1.082-4.531-3.329-3.436-5.434c1.398-2.689,3.374-0.126,4.828,1.066
			c1.318,1.08,2.699,1.419,3.953,0.232c1.347-1.275,2.371-2.793,1.926-4.908c-0.358-1.703-1.278-2.525-2.98-2.725
			C203.283,424.276,200.981,423.884,198.371,423.499z"/>
		<path d="M276.92,145.783c2.206,11.424,0.606,20.819-2.815,30.025c-0.574,1.543-1.076,3.457-3.153,3.261
			c-2.326-0.22-1.769-2.651-1.973-3.955c-0.934-5.994-1.391-11.952,2.177-17.539C273.184,154.398,274.516,150.778,276.92,145.783z"
			/>
		<path d="M185.7,409.138c-2.311-2.82-1.472-6.396-2.342-9.544c-0.622-2.251-1.363-4.464-4.003-4.572
			c-2.955-0.121-1.602,2.738-2.383,4.154c-0.679,1.23,0.08,3.325-1.587,3.794c-1.804,0.508-2.264-1.461-3.095-2.594
			c-0.731-0.995-1.209-2.663-2.819-2.016c-1.727,0.694-1.524,2.507-1.002,3.81c1.27,3.169,1.116,6.99,4.24,9.349
			c1.049,0.793,2.032,2.148,0.805,3.202c-1.264,1.087-2.343-0.396-3.196-1.255c-4.013-4.039-5.597-9.005-5.206-14.607
			c0.119-1.706,1.411-4.296,2.53-3.729c5.921,3.003,8.095-7.236,13.904-3.608C185.935,394.267,188.372,404.383,185.7,409.138z"/>
		<path d="M155.432,118.626c4.267-4.352,7.001-9.99,12.202-13.63c3.906-2.734,8.047-4.775,12.363-6.753
			c-3.265,4.551-6.527,8.895-8.275,14.154c-0.569,1.711-1.964,2.673-3.538,3.27c-3.335,1.265-6.086,3.402-8.852,5.56
			c-1.085,0.846-2.259,2.655-3.719,1.381c-1.036-0.904-0.835-2.723-0.115-4.141L155.432,118.626z"/>
		<path d="M189.105,220.12c0.137,1.756,4.285,0.865,2.561,3.773c-1.352,2.28-3.224,2.56-5.674,1.447
			c-8.099-3.68-15.867-7.839-22.462-13.942c-2.007-1.857-3.22-3.917-2.824-7.128c9.109,6.466,17.614,13.493,28.576,16.009
			C189.272,220.272,189.105,220.12,189.105,220.12z"/>
		<path d="M213.378,385.108c0.889,0.749,1.96,1.288,2.485,2.157c2.47,4.086,4.932,4.658,7.913,0.465
			c0.806-1.134,2.139-2.378,3.694-0.968c1.192,1.08,0.057,2.314-0.662,2.723c-5.399,3.071-5.058,7.058-2.383,11.785
			c0.716,1.265,1.332,3.039,0.13,4.537c-1.314,0.301-1.719-0.655-2.14-1.413c-2.115-3.801-4.066-8.434-7.492-0.85
			c-0.377,0.833-1.23,1.542-2.243,1.036c-1.186-0.593-1.505-2.203-0.782-2.795c5.951-4.877,4.628-10.055,0.988-15.472
			C212.778,386.153,213.13,385.687,213.378,385.108z"/>
		<path d="M232.966,221.611c1.415,0,2.831,0,5.405,0c-14.867,10.126-29.818,5.275-44.481,3.919
			c4.824-3.883,10.385-0.73,15.515-1.654C217.368,224.264,225.134,222.594,232.966,221.611z"/>
		<path d="M244.29,393.64c-1.574-0.854-2.224-1.126-2.782-1.526c-1.342-0.962-2.635-2.367-4.333-0.734
			c-1.63,1.568-0.592,3.057,0.415,4.414c2.327,3.138,2.872,6.31,0.348,9.6c-1.702,2.218-4.097,2.239-6.539,1.959
			c-2.097-0.241-3.206-1.731-3.879-3.517c-0.389-1.03-0.593-2.427,0.397-3.099c1.204-0.817,1.966,0.316,2.59,1.269
			c1.053,1.609,1.804,4.211,4.431,2.351c2.204-1.56,1.879-3.778,0.518-5.887c-0.499-0.773-1.078-1.525-1.408-2.37
			c-1.223-3.135-1.855-6.195,2.147-7.902C239.602,386.744,242.118,388.189,244.29,393.64z"/>
		<path d="M245.873,392.38c4.893,0.933,8.297,3.655,12.008,5.723c0.712,0.397,1.04,1.182,0.575,1.844
			c-0.631,0.899-1.933,0.814-2.49,0.303c-2.93-2.688-3.936-0.061-5.465,1.689c-3.265,3.739-5.674,8.279-10.969,12.371
			c1.223-5.339,4.251-7.868,6.068-10.979C247.725,399.692,251.728,396.66,245.873,392.38z"/>
		<path d="M155.498,118.465c-2.92,6.916-6.375,13.481-12.644,19.641c1.381-8.511,3.107-15.504,9.491-20.326
			c1.461-1.104,2.712-1.753,3.078,0.861C155.432,118.626,155.498,118.465,155.498,118.465z"/>
		<path d="M232.966,221.611c-7.653,2.839-15.486,3.817-23.561,2.266c0.416-0.354,0.832-0.707,1.249-1.061
			c7.545,0.247,14.915-1.24,22.335-2.24C233.035,220.922,233.028,221.267,232.966,221.611z"/>
		<path d="M267.62,404.25c-0.048-0.059-0.099-0.111-0.147-0.169c-0.017-0.002-0.032-0.009-0.049-0.011L267.62,404.25z"/>
		<path d="M167.214,162.488c1.863-2.979,3.726-5.958,5.589-8.937c0.355,0.393,0.711,0.786,1.066,1.178
			c-1.205,2.979-3.025,5.552-5.199,7.892C168.185,162.577,167.699,162.532,167.214,162.488z"/>
		<path d="M229.593,174.764c0.007,1.85,0.015,3.701,0.022,5.551C226.877,179.691,226.877,179.573,229.593,174.764z"/>
		<path d="M286.364,393.974c-10.636-10.552-24.25-16.009-37.346-22.347c-3.105-1.503-5.833-1.82-0.979-5.134
			c4.937-3.37,5.478-10.307,1.215-13.799c-4.31-3.531-4.309-7.45-3.671-12.3c2.819-21.415,9.75-42.053,11.465-63.708
			c1.166-14.724,3.65-29.35,2.79-44.191c-0.435-7.509-5.651-13.235-11.743-13.176c-6.832,0.066-13.758,6.723-14.19,13.597
			c-1,15.89-1.95,31.783-3.062,47.665c-0.493,7.045-1.288,7.451-7.546,5.072c-7.569-2.877-15.426-3.977-23.432-2.972
			c-15.056,1.889-31.77,13.317-32.967,31.339c-0.534,8.037,0.924,15.242,2.605,22.791c3.337,14.985,11.749,25.061,26.632,29.446
			l20.94,0.289c-0.006-0.033-0.012-0.065-0.034-0.099c-0.32-0.498,0.21-0.215,0.088,0.1l1.452,0.02
			c-7.736,2.85-15.519,4.136-23.465,0.597c-5.093-1.308-10.084-1.364-15.265,0.056c-13.928,3.816-26.1,10.959-37.619,19.346
			c-2.067,1.505-3.426,1.882-5.841,0.703c-15.965-7.795-31.651-15.923-44.643-28.436c-4.786-4.61-10.028-8.792-15.339-12.803
			c-15.769-11.911-25.782-28.31-34.424-45.42c-5.666-11.217-6.087-24.247-9.082-36.41c-2.428-9.863-4.388-19.841-6.712-29.731
			c-1.501-6.387-4.931-8.189-13.238-7.365c-6.174,0.613-8.485,2.937-8.533,9.243c-0.049,6.3,1.11,12.51,2.355,18.653
			c3.5,17.27,10.442,33.338,17.16,49.532c7.251,17.477,18.009,32.294,32.289,44.402c27.395,23.226,57.431,42.084,91.643,53.844
			c4.532,1.558,7.593,1.07,10.626-2.576c8.247-9.913,19.794-13.53,31.753-16.492c12.752-3.158,25.333-1.395,37.959,0.556
			c15.246,2.356,29.085,7.482,39.269,19.818c3.785,0.518,6.043,3.882,9.501,5.07c5.649,1.941,9.818,0.818,12.553-3.701
			C292.503,400.532,289.808,397.39,286.364,393.974z M209.354,349.012c-10.652,0.119-16.119-5.5-17.474-16.584
			c-0.201-1.643-0.188-3.313-0.277-4.97c-0.353-9.778,6.177-15.645,18.005-16.179c13.561-0.612,19.642,6.63,16.874,20.084
			c-0.223,1.082-0.301,2.198-0.58,3.263C222.674,346.98,220.387,348.889,209.354,349.012z M223.168,364.915
			c3.908-3.94,5.584-0.974,7.032,2.112C227.95,365.993,225.843,365.023,223.168,364.915z M236.78,370.649
			c1.828-0.312,3.656-0.624,6.384-1.09C241.026,372.628,238.834,371.197,236.78,370.649z"/>
		<path d="M164.101,353.979c-6.247,0.667-9.183-2.341-11.497-7.171c-1.352-2.821-2.873-5.566-4.123-8.43
			c-4.648-10.647-9.101-21.404-14.805-31.53c-5.119-9.086-12.794-14.18-23.714-13.01c-5.259,0.563-9.801,3.031-14.405,5.383
			c-10.081,5.152-10.53,13.482-7.843,21.563c2.958,8.896,10.194,10.484,16.97,3.983c6.371-6.113,14.615-5.983,22.122,0.997
			c-3.025,0.947-5.453,1.729-7.896,2.467c-13.433,4.057-17.84,14.509-10.715,26.689c5.561,9.506,13.142,17.393,22.503,23.274
			c9.498,5.967,20.623,3.09,26.023-6.778c1.667-3.047,3.38-2.93,6.199-2.558c4.968,0.656,9.718-2.748,10.014-6.616
			C173.292,357.54,169.633,353.388,164.101,353.979z M143.472,362.974c-1.294,2.247-3.703,2.141-5.945,1.998
			c-4.348-0.277-13.766-8.833-14.527-13.151c-0.597-3.39,3.897-7.133,8.832-6.787c2.384-0.06,4.541,1.091,6.037,3.908
			c1.371,2.581,3.28,4.878,4.97,7.288C144.338,358.367,144.775,360.712,143.472,362.974z"/>
		<path d="M312.65,298.749c-8.047-4.814-21.867-3.19-26.605,3.039c-13.724,18.044-22.907,38.118-27.305,60.405
			c-1.178,5.968,1.713,9.994,5.582,13.576c3.615,3.348,7.999,3.4,12.4,1.6c2.547-1.042,4.993-2.331,7.499-3.478
			c3.483-1.593,6.034-4.029,5.345-8.096c-0.722-4.263-4.073-5.779-8.036-6.367c-8.611-1.277-9.904-4.398-4.753-12.088
			c5.165,5.5,10.493,10.146,18.492,7.207c13.397-4.921,24.23-12.753,28.202-27.304C327.508,312.456,324.384,305.769,312.65,298.749z
			 M297.255,336.723c-4.342,0.033-8.507-3.167-8.016-6.562c0.585-4.042,3.021-6.607,7.357-6.76c4.283-0.152,7.46,1.75,7.343,6.188
			C303.839,333.38,302.035,336.744,297.255,336.723z"/>
		<path d="M205.244,386.887c-1.73-3.065-4.33-3.972-7.414-2.046c-4,2.499-7.154,13.089-5.33,17.572
			c0.527,1.295,0.906,3.12,2.919,2.556c1.852-0.519,1.206-2.192,0.745-3.212c-1.686-3.732,0.461-3.815,3.231-3.9
			c3.253-0.099,5.632,0.161,3.958,4.397c-0.629,1.591-0.145,3.237,1.567,3.482c2.023,0.29,1.318-1.727,1.553-2.804
			c0.467-2.142,0.781-4.317,1.159-6.479C207.881,392.967,206.897,389.816,205.244,386.887z M196.765,394.564
			c0.653-2.35,1.158-5.446,3.351-5.876c2.601-0.509,2.266,3.135,4.33,4.714C201.46,393.774,199.384,395.327,196.765,394.564z"/>
		<path d="M227.802,424.042c-1.67-2.779-4.511-2.677-7.603-3.494c2.224-3.523,6.183-4.075,8.689-7.386
			c-8.893-0.706-15.322,7.556-13.856,16.742c0.49,3.071,1.498,6.049,4.786,6.778c3.571,0.791,6.523-1.367,8.591-3.932
			C230.651,429.971,229.579,427.001,227.802,424.042z M221.978,432.141c-2.31-0.044-3.147-1.448-3.216-3.512
			c-0.062-1.858,0.672-3.395,2.659-3.385c2.396,0.012,4.358,1.511,4.454,3.837C225.959,431.104,223.85,431.81,221.978,432.141z"/>
		<g>
			<path d="M267.47,404.157c-2.403-1.565-5.117-1.618-7.839-1.517c-0.637,0.024-2.064-0.112-1.772,0.645
				c2.36,6.131-4.518,6.31-6.185,9.81c-0.831,1.745-3.834,2.349-3.039,5.101c2.052,0.344,2.895-1.076,4.077-1.86
				c1.315-0.873,2.061-2.718,4.243-2.434c0.944,3.087,0.581,6.043-1.003,8.836c-0.72,1.269-1.19,2.397,0.532,3.12
				c1.54,0.647,2.543-0.226,3.005-1.556c0.599-1.721,1.03-3.51,1.395-5.299c0.298-1.459,0.468-2.467,2.364-3.108
				C270.325,413.508,271.145,410.901,267.47,404.157z M263.393,412.382c-1.444-0.255-3.353-0.576-3.047-2.398
				c0.243-1.446,1.211-3.065,3.056-3.568c1.318,0.996,3.063,1.778,2.997,3.62C266.342,411.645,265.214,412.703,263.393,412.382z"/>
			<path d="M267.424,404.07c0.016,0.03,0.029,0.057,0.046,0.087c0.048,0.031,0.098,0.054,0.146,0.086
				C267.62,404.25,267.424,404.07,267.424,404.07z"/>
		</g>
		<g>
			<path d="M164.956,434.981c-2.331,0.776-4.569,3.201-7.137,1.166c-2.42-1.918-3.408-4.619-2.325-8.907
				c1.009,2.829,1.426,4.824,2.399,6.495c0.992,1.704,2.914,1.422,4.492,0.825c1.028-0.389,1.841-1.357,1.403-2.634
				c-0.798-2.326-2.43-0.332-4.284-0.506c1.814-2.278,3.33-4.179,4.857-6.097c2.028,1.128-2.534,3.626,0.958,3.998
				c2.027,0.216,3.211-1.618,4.068-3.25c0.978-1.863,0.011-3.057-1.667-3.995c-1.754-0.98-4.142,0.229-6.432-2.725
				c4.166,0.294,7.598,0.111,9.532,3.35c1.877,3.144-0.194,5.799-2.701,7.485c-1.924,1.294-2.26,3.247-3.289,4.917L164.956,434.981z
				"/>
			<path d="M139.716,413.864c1.628,0.634,1.743,1.729,2.093,2.764c0.411,1.218,1.565,1.706,2.68,1.298
				c1.141-0.418,2.497-0.858,2.726-2.427c0.178-1.221-0.289-2.068-1.281-2.815c-1.04-0.782-5.051-0.108-2.102-2.995
				c1.542-1.509,3.666-4.996,6.812-1.66c0.861,0.913,2.022,1.645,2.14,3.273c-0.501,0.057-1.036,0.27-1.47,0.141
				c-1.542-0.457-1.937-3.925-4.226-2.049c-2.299,1.883,1.488,2.25,1.398,3.816c-0.102,1.78,0.684,3.746-1.196,5.069
				c-1.769,1.245-3.785,1.66-5.766,0.814C139.395,418.183,138.521,416.513,139.716,413.864z"/>
			<path d="M151.972,418.521c3.208,0.077,6.335-0.02,1.792-4.695c5.924,2.967,6.168,3.92,2.409,6.484
				c-1.008,0.687-0.941,1.508-0.901,2.331c0.185,3.775-2.026,4.877-5.234,4.633c-3.671-0.278-2.767-3.2-2.96-5.662
				c1.446,2.305,2.543,5.593,5.893,3.262C155.805,422.903,152.332,421.195,151.972,418.521z"/>
			<path d="M279.031,420.956c2.752-0.677,6.105-1.574,7.175,2.624c0.696,2.728-0.115,5.019-3.624,5.593
				c-0.433-2.099,2.057-2.74,1.845-4.405c-0.11-0.867-0.378-1.834-0.911-2.477c-0.265-0.32-1.75-0.244-1.899,0.05
				c-1.914,3.777-3.165,2.259-4.477-0.41c-1.235-2.51-1.295-2.48,2.742-5.015C280.733,418.62,277.887,419.219,279.031,420.956z"/>
			<path d="M202.447,453.178c-0.225,2.479,2.926,1.134,3.345,3.296c-2.513,1.237-4.242,0.193-4.983-2.079
				c-0.805-2.469,0.058-4.739,2.39-6.147c0.963-0.581,2.083-0.658,3.141-0.01c1.143,0.7,1.174,1.82,0.979,2.903
				c-0.234,1.301-1.278,1.648-2.47,1.715C204.027,452.902,203.102,452.367,202.447,453.178z"/>
			<path d="M236.422,442.525c1.854-2.098,3.707-3.046,5.883-1.405c1.597,1.204,1.161,4.126-1.072,8.921
				c1.279,0.204,2.508,0.4,3.788,0.604c-0.147,0.413-0.204,0.917-0.357,0.948c-1.889,0.381-3.417,2.493-5.619,1.275
				c-0.769-0.425-0.719-1.287-0.373-1.943c0.598-1.136,1.383-2.173,2.021-3.29c0.836-1.463,1.653-3.055,0.679-4.683
				C240.088,440.808,238.45,443.606,236.422,442.525z"/>
			<path d="M293.22,416.421c-1.416,3.437-3.283,4.782-5.152,6.254c-1.963-1.508-1.442-3.617-1.675-5.509
				c-0.151-1.226,0.063-2.727-1.543-3.199c-1.588-0.467-1.499,1.7-2.849,2.151c-0.811-2.481,0.339-3.8,2.261-4.261
				c1.688-0.405,3.098,0.935,3.052,2.413C287.176,418.756,288.344,420.498,293.22,416.421z"/>
			<path d="M175.452,444.429c0.5-1.449,1.001-2.898,1.529-4.428c-2.803-0.732-2.828,2.735-5.497,2.75
				c1.044-2.892,2.8-4.788,5.187-5.95c0.346-0.169,2.115,1.472,2.397,2.502C179.791,441.94,177.931,443.442,175.452,444.429z"/>
			<path d="M212.569,442.934c-0.443,4.706-0.763,9.44-3.234,13.662C208.965,451.696,210.04,447.142,212.569,442.934z"/>
			<path d="M181.055,445.718c0.755-3.049,1.955-5.914,5.47-3.567c3.835,2.561,0.843,4.918-0.584,7.615
				c-1.625-2.195,2.167-4.06-0.097-5.533C184.029,443.052,182.5,444.54,181.055,445.718z"/>
			<path d="M269.783,427.105c2.675,2.682,2.891,6.276,4.254,10.166c-3.959-2.819-5.296-6.183-5.659-10.055
				C268.808,426.698,269.276,426.661,269.783,427.105z"/>
			<path d="M231.024,451.657c0.281-0.861,0.516-1.739,0.85-2.579c1.26-3.169,3.506-7.039-3.568-3.497
				c1.238-3.265,3.37-3.407,5.168-2.605c1.434,0.639,0.924,2.564,0.76,4.004c-0.212,1.857-0.942,3.444-2.454,4.612
				C231.528,451.613,231.276,451.635,231.024,451.657z"/>
			<path d="M269.783,427.105c-0.468,0.037-0.936,0.074-1.405,0.111c-1.003,0.119-2.006,0.238-3.009,0.357
				C266.812,427.065,268.109,422.254,269.783,427.105z"/>
			<path d="M204.182,441.479c-2.985-0.927-5.971-1.854-8.956-2.781c5.646,2.498,4.514,6.505,2.829,10.656
				c-0.563,1.386-1.322,2.74-0.15,4.767c1.499-4.099,2.803-7.665,4.106-11.231c1.67-0.127,3.34-0.254,5.178-0.394
				C206.309,441.072,205.11,441.771,204.182,441.479z"/>
			<path d="M231.024,451.657c0.267,0.149,0.519,0.127,0.756-0.066c0.856,1.834,3.129-0.084,4.1,1.523
				C231.718,454.564,231.718,454.564,231.024,451.657z"/>
			<path d="M255.263,442.082c-0.166,0.079-0.766,0.455-1.42,0.654c-0.624,0.19-1.547,0.253-1.463-0.652
				c0.046-0.497,0.883-1.003,1.459-1.343C254.292,440.473,254.836,440.591,255.263,442.082z"/>
			<path d="M187.262,454.269c0.229-2.086,0.977-3.636,1.963-3.41c1.77,0.407,0.324,1.499-0.153,2.191
				C188.808,453.435,188.256,453.621,187.262,454.269z"/>
			<path d="M224.37,447.591c-2.437-0.004-3.754,1.643-3.662,3.839c0.112,2.654,1.345,5.266,4.291,5.407
				c2.623,0.126,3.312-2.316,3.614-4.545C228.23,449.721,227.363,447.596,224.37,447.591z M224.885,454.536
				c-1.569-0.054-2.069-1.288-2.057-2.614c0.009-0.943-0.216-2.321,1.534-2.099c1.474,0.187,2.068,1.218,2.39,2.57
				C226.524,453.407,226.264,454.584,224.885,454.536z"/>
			<g>
				<path d="M164.831,435.105c0.045-0.032,0.091-0.061,0.136-0.092c-0.002-0.011-0.003-0.023-0.006-0.034
					C164.956,434.981,164.831,435.105,164.831,435.105z"/>
				<path d="M172.555,433.292c-2.296-1.42-4.495-0.777-6.464,0.911c-0.349,0.3-0.744,0.547-1.125,0.809
					c0.4,1.956-0.555,4.844,2.659,5.033c2.619,0.154,4.141-2,5.573-3.903C174.055,435.005,173.401,433.815,172.555,433.292z
					 M168.832,437.859c-1.2,0.075-1.948-0.257-1.871-1.088c0.098-1.055,0.457-2.168,1.857-2.255c0.985-0.061,1.897,0.235,1.89,1.355
					C170.699,437.229,169.276,437.282,168.832,437.859z"/>
			</g>
			<path d="M276.822,426.17c-2.422-0.089-3.247,1.487-3.037,3.6c0.204,2.059,0.672,4.228,3.362,4.254
				c2.336,0.022,2.92-1.834,3.304-3.574C280.093,428.164,279.391,426.265,276.822,426.17z M278.443,430.747
				c-0.033,0.723-0.368,1.586-1.19,1.364c-1.228-0.331-1.106-1.644-1.31-2.628c-0.197-0.945,0.519-1.131,1.247-1.227
				C278.655,428.557,278.489,429.715,278.443,430.747z"/>
			<path d="M263.084,431.52c0.026-1.066,0.231-2.26-1.465-2.19c-1.679,0.07-2.16,1.18-2.101,2.613
				c0.048,1.186-0.454,3.146,1.372,2.992c3.364-0.282,4.292,2.538,7.104,5.563C266.707,436.04,265.826,433.273,263.084,431.52z
				 M261.451,433.454c-0.304-0.066-0.691-0.831-0.648-1.231c0.203-1.882,1.342-0.851,2.206-0.672
				c0.007-0.024,0.01-0.051,0.018-0.074c0,0,0.055,0.093,0.055,0.093c-0.023-0.004-0.049-0.014-0.073-0.019
				C262.748,432.412,263.11,433.814,261.451,433.454z"/>
			<path d="M252.18,445.006c-1.595-1.412-1.373-3.164-1.65-4.937c-0.233-1.492-0.573-3.541-2.933-2.996
				c-2.098,0.484-3.035,2.137-2.524,4.142c0.331,1.299,1.364,2.419,2.082,3.62c-1.465,2.11-1.484,3.764,1.419,4.495
				c0.426-0.331,0.426-0.331,0,0c1.353,0.084,2.945,1.353,3.966-0.324C253.302,447.755,253.375,446.063,252.18,445.006z
				 M246.387,440.832c0.466-0.633,0.671-1.213,1.038-1.347c0.816-0.299,1.325,0.205,1.277,1.028
				c-0.028,0.476-0.351,0.935-0.542,1.401C247.62,441.584,247.08,441.255,246.387,440.832z M250.782,447.515
				c0,0-1.186,1.105-2.291,0s0-1.882,0-1.882c-0.086-0.086,1.145-0.491,1.309-0.327s0.491,0.409,0.982,0.9
				S250.782,447.515,250.782,447.515z"/>
			<path d="M262.378,438.669c-4.273,0.391-3.888-3.329-5.775-7.009c-0.733,5.108,0.061,8.425,1.918,11.463
				c0.667,1.091,1.828,1.849,3.278,1.34c1.281-0.449,2.269-1.208,2.295-2.742C264.117,440.336,263.631,438.554,262.378,438.669z
				 M260.849,443c-1.663,0-0.103-2.771-0.103-2.771c1.191-0.554,2.063,0.004,2.217,0.554C263.17,441.521,262.512,443,260.849,443z"
				/>
		</g>
	</g>
</g>
</svg>
